<?xml version="1.0" standalone="no"?>
<!DOCTYPE svg PUBLIC "-//W3C//DTD SVG 20010904//EN"
 "http://www.w3.org/TR/2001/REC-SVG-20010904/DTD/svg10.dtd">
<svg version="1.0" xmlns="http://www.w3.org/2000/svg"
 width="960.000000pt" height="960.000000pt" viewBox="0 0 960.000000 960.000000"
 preserveAspectRatio="xMidYMid meet">
<metadata>
Created by potrace 1.14, written by Peter Selinger 2001-2017
</metadata>
<g transform="translate(0.000000,960.000000) scale(0.100000,-0.100000)"
fill="#000000" stroke="none">
<path d="M5519 7433 c-8 -51 19 -87 55 -74 11 5 30 5 41 1 11 -4 27 -4 35 0 8
4 24 4 35 0 11 -4 29 -4 40 0 11 4 29 5 40 3 11 -2 34 -3 50 -3 17 1 36 1 43
1 13 -1 103 -1 125 0 6 0 31 -2 55 -3 23 -2 42 0 42 4 0 4 12 3 28 -1 15 -5
36 -5 47 -1 11 4 24 5 30 2 12 -8 102 -5 115 3 6 3 10 3 10 -2 0 -9 137 -9
146 0 3 3 18 2 33 -3 16 -4 34 -4 41 0 7 4 25 4 40 0 15 -4 33 -4 40 0 7 5 23
4 36 0 12 -5 24 -7 27 -4 9 9 61 10 89 3 15 -4 30 -4 33 1 3 5 18 5 34 0 15
-4 34 -4 42 0 7 5 17 6 22 3 13 -8 147 -9 147 -1 0 4 13 3 29 -2 15 -4 34 -4
42 0 7 5 17 6 22 3 12 -7 276 -7 283 0 3 3 18 2 33 -3 16 -4 34 -4 41 0 7 4
25 4 40 0 15 -4 33 -4 40 0 7 5 23 4 36 0 12 -5 24 -7 27 -4 9 9 61 10 89 3
15 -4 30 -4 33 1 3 5 16 6 28 1 12 -5 31 -5 42 -1 11 4 31 4 45 0 14 -4 35 -4
47 1 12 4 25 4 28 -1 3 -5 18 -5 35 0 17 5 30 6 30 2 0 -6 145 -7 160 -1 3 1
10 0 15 -1 18 -4 137 -1 142 3 2 3 18 1 34 -3 16 -5 31 -5 34 0 3 5 16 6 28 1
12 -5 31 -5 42 -1 11 4 31 4 45 0 14 -4 35 -4 47 1 12 4 25 4 28 -1 3 -5 18
-5 35 0 17 5 30 6 30 2 0 -6 145 -7 160 -1 3 1 10 0 15 -1 18 -4 137 -1 142 3
2 3 18 1 34 -3 16 -5 31 -5 34 0 3 5 16 6 28 1 12 -5 31 -5 42 -1 11 4 31 4
45 0 14 -4 35 -4 47 1 12 4 25 4 28 -1 3 -5 18 -5 35 0 17 5 30 5 30 0 0 -4
16 -4 35 0 19 4 35 5 35 1 0 -8 74 -6 89 3 6 4 11 3 11 -2 0 -5 13 -7 29 -4
30 4 29 10 32 -123 0 -17 0 -248 -1 -285 0 -19 -1 -46 -3 -60 -1 -14 1 -40 4
-57 4 -18 3 -33 -2 -33 -5 0 -4 -11 1 -24 5 -13 7 -26 4 -29 -4 -4 -5 -54 -3
-262 0 -16 -1 -63 -3 -103 -2 -39 0 -72 4 -72 3 0 4 -8 2 -17 -7 -31 -9 -143
-2 -143 3 0 4 -8 2 -17 -7 -31 -9 -143 -2 -143 3 0 4 -8 2 -17 -7 -30 -9 -143
-3 -143 3 0 3 -19 -1 -42 -3 -24 -3 -58 1 -75 3 -18 3 -33 -2 -33 -5 0 -4 -11
1 -24 5 -13 7 -26 4 -29 -3 -3 -5 -58 -4 -123 1 -143 0 -181 -3 -214 -1 -14 1
-40 4 -57 4 -19 3 -33 -2 -33 -6 0 -6 -8 0 -19 6 -10 8 -21 5 -24 -5 -4 -6
-107 -2 -187 1 -14 -1 -36 -3 -50 -5 -28 29 -51 62 -43 19 5 19 33 19 1284 l0
1279 -2040 0 c-1122 0 -2040 -3 -2041 -7z"/>
<path d="M3108 6115 c-2 -1 -55 -5 -118 -9 -63 -3 -126 -8 -140 -10 -14 -3
-45 -7 -70 -10 -25 -4 -58 -9 -75 -12 -16 -4 -37 -7 -45 -9 -29 -4 -106 -26
-180 -52 -163 -57 -349 -179 -471 -308 -62 -66 -129 -150 -129 -163 0 -6 -4
-12 -8 -14 -9 -3 -92 -142 -92 -152 0 -3 -11 -29 -24 -58 -40 -84 -64 -164
-102 -333 -3 -11 -7 -36 -9 -55 -2 -19 -7 -55 -11 -80 -14 -94 -8 -413 11
-515 9 -53 17 -100 17 -102 -2 -9 43 -161 65 -223 35 -99 111 -246 170 -328
50 -71 224 -252 241 -252 6 0 12 -4 14 -9 6 -17 162 -107 248 -144 85 -36 236
-79 320 -92 162 -26 217 -30 420 -29 177 0 317 7 380 19 10 2 35 6 55 9 37 6
159 32 200 42 36 9 31 8 120 40 28 10 52 19 55 20 20 4 265 122 300 144 8 5
53 32 100 61 47 28 109 67 138 86 l52 34 -2 611 -3 611 -655 -1 c-360 0 -667
-1 -681 -1 l-26 -1 0 -294 c-1 -213 2 -296 11 -298 6 -2 138 -3 293 -3 189 1
284 -3 286 -10 1 -5 3 -66 2 -134 l0 -125 -110 -57 c-98 -52 -215 -97 -300
-115 -16 -3 -89 -8 -161 -10 -142 -3 -241 14 -326 57 -24 12 -45 22 -48 21 -7
-1 -89 66 -115 93 -74 78 -138 208 -161 330 -2 11 -6 31 -9 45 -15 68 -19 141
-18 310 1 196 6 269 27 338 3 9 7 28 10 42 16 82 82 210 143 276 71 76 199
152 288 170 100 20 198 21 297 4 67 -12 176 -58 198 -85 7 -8 18 -15 24 -15
24 -1 136 -171 136 -207 0 -12 56 -11 100 2 8 2 31 7 50 10 19 3 58 10 85 15
28 5 66 12 85 15 38 5 116 19 195 35 28 5 62 12 78 14 15 3 53 10 85 15 31 6
74 13 96 17 58 9 78 13 83 17 2 3 -3 24 -12 48 -9 24 -18 52 -20 62 -7 30 -81
181 -111 226 -16 24 -36 54 -45 67 -18 27 -124 138 -162 170 -77 65 -216 136
-327 167 -78 23 -116 31 -210 43 -19 3 -48 7 -65 10 -16 2 -113 7 -215 10
-102 3 -193 7 -202 8 -9 2 -18 3 -20 1z"/>
<path d="M6469 6115 c-2 -2 -56 -5 -119 -6 -63 -2 -135 -6 -160 -10 -25 -4
-67 -9 -95 -13 -27 -3 -68 -11 -90 -16 -22 -6 -51 -13 -65 -16 -80 -16 -291
-104 -375 -157 -141 -88 -294 -237 -380 -373 -34 -53 -96 -169 -95 -179 0 -3
-7 -19 -15 -36 -18 -34 -54 -139 -61 -179 -3 -14 -10 -43 -16 -65 -16 -64 -21
-96 -35 -230 -12 -124 -4 -499 12 -525 2 -3 6 -26 10 -50 4 -25 8 -49 9 -55
28 -114 57 -204 91 -280 10 -22 19 -43 19 -46 2 -15 110 -189 118 -189 4 0 8
-7 8 -15 0 -7 6 -18 13 -22 6 -4 24 -24 38 -43 155 -207 479 -384 779 -426 19
-2 42 -6 50 -9 67 -18 485 -27 595 -12 28 3 70 9 95 12 25 4 51 8 59 11 8 3
30 7 50 10 97 16 309 101 394 158 21 14 41 26 44 26 13 0 152 118 211 179 95
100 242 334 242 386 0 8 4 15 8 15 5 0 9 6 10 13 0 6 14 58 31 113 16 56 32
117 35 135 3 19 8 52 11 74 4 22 8 51 11 65 12 67 17 324 9 441 -4 67 -9 107
-30 240 -2 14 -11 55 -20 90 -10 35 -18 69 -19 74 -1 6 -4 15 -7 20 -4 6 -12
28 -19 50 -62 198 -228 422 -417 563 -115 87 -348 195 -467 218 -12 2 -32 6
-46 9 -62 13 -118 23 -170 31 -14 2 -72 6 -130 10 -58 3 -108 8 -111 10 -3 2
-8 2 -10 -1z m56 -680 c132 -16 268 -85 338 -172 10 -13 25 -30 33 -37 8 -8
14 -19 14 -24 0 -6 3 -12 8 -14 18 -8 99 -215 87 -226 -2 -3 0 -13 5 -22 28
-52 31 -376 6 -577 -38 -301 -198 -494 -446 -539 -196 -35 -411 20 -529 137
-48 47 -118 139 -107 139 3 0 -4 18 -15 40 -12 22 -25 57 -31 78 -23 92 -27
110 -34 162 -4 30 -8 94 -8 142 -1 49 -3 88 -6 88 -10 0 9 256 25 330 3 14 7
34 9 45 15 70 82 225 98 225 5 0 8 6 8 13 0 25 123 127 194 162 73 35 94 42
181 52 28 3 51 6 52 7 3 3 45 -1 118 -9z"/>
<path d="M13 4723 c-10 -4 -13 -269 -13 -1284 l0 -1279 2043 2 2042 3 -3 30
c-4 38 -27 56 -56 46 -11 -5 -30 -5 -42 -1 -11 5 -27 4 -34 0 -7 -5 -23 -4
-36 0 -12 5 -24 7 -27 4 -9 -9 -61 -10 -89 -3 -15 4 -30 4 -33 -1 -3 -5 -16
-6 -28 -1 -12 5 -31 5 -42 1 -11 -4 -31 -4 -45 0 -14 4 -35 4 -47 -1 -12 -4
-25 -4 -28 1 -3 5 -18 5 -35 0 -17 -5 -30 -6 -30 -2 0 6 -145 7 -160 1 -3 -1
-9 0 -15 1 -22 4 -186 2 -191 -3 -3 -3 -18 -2 -33 3 -16 4 -34 4 -41 0 -7 -4
-25 -4 -40 0 -15 4 -33 4 -40 0 -7 -5 -23 -4 -36 0 -12 5 -24 7 -27 4 -9 -9
-61 -10 -89 -3 -15 4 -30 4 -33 -1 -3 -5 -18 -5 -34 0 -15 4 -34 4 -42 0 -7
-5 -17 -6 -22 -3 -13 8 -147 9 -147 1 0 -4 -13 -3 -29 2 -15 4 -34 4 -42 0 -7
-5 -17 -6 -22 -3 -12 7 -276 7 -283 0 -3 -3 -18 -2 -33 3 -16 4 -34 4 -41 0
-7 -4 -25 -4 -40 0 -15 4 -33 4 -40 0 -7 -5 -23 -4 -36 0 -12 5 -24 7 -27 4
-9 -9 -61 -10 -89 -3 -15 4 -30 4 -33 -1 -3 -5 -16 -6 -28 -1 -12 5 -31 5 -42
1 -11 -4 -31 -4 -45 0 -14 4 -35 4 -47 -1 -12 -4 -25 -4 -28 1 -3 5 -18 5 -35
0 -17 -5 -30 -6 -30 -2 0 6 -145 7 -160 1 -3 -1 -9 0 -15 1 -22 4 -186 2 -191
-3 -3 -3 -18 -2 -33 3 -16 4 -34 4 -41 0 -7 -4 -25 -4 -40 0 -15 4 -33 4 -40
0 -7 -5 -23 -4 -36 0 -12 5 -24 7 -27 4 -9 -9 -61 -10 -89 -3 -15 4 -30 4 -33
-1 -3 -5 -18 -5 -34 0 -15 4 -34 4 -42 0 -7 -5 -17 -6 -22 -3 -13 8 -147 9
-147 1 0 -4 -13 -3 -29 2 -15 4 -34 4 -42 0 -7 -5 -17 -6 -22 -3 -11 7 -352 7
-363 1 -5 -3 -18 -2 -29 2 -11 4 -30 4 -43 -1 -25 -10 -23 -11 -28 21 -4 26
-4 42 -4 143 1 31 -2 62 -5 67 -3 6 -2 10 4 10 7 0 7 8 1 24 -5 13 -7 26 -4
29 3 3 5 58 4 123 -1 143 0 181 3 214 1 14 -1 40 -4 58 -4 17 -3 32 2 32 5 0
4 11 -1 24 -5 13 -7 26 -4 29 3 3 5 58 4 123 -1 143 0 181 3 214 1 14 -1 40
-4 58 -4 17 -3 32 2 32 5 0 4 11 -1 24 -5 13 -7 26 -4 29 3 3 5 58 4 123 -1
143 0 181 3 214 1 14 -1 40 -4 58 -4 17 -3 32 2 32 5 0 4 11 -1 24 -5 13 -7
26 -4 29 3 3 5 58 4 123 -1 143 0 181 3 214 1 14 -1 40 -4 58 -4 18 -3 32 3
32 5 0 6 5 2 12 -4 6 -6 34 -5 62 6 125 6 206 0 206 -4 0 -6 7 -5 17 1 17 -38
33 -61 26z"/>
</g>
</svg>
